# xmcd CD database file
#
# Track frame offsets:
#	150
#	2842
#	27385
#	46750
#	71290
#	92072
#	110930
#	113065
#	137875
#	165227
#	190902
#
# Disc length: 2758 seconds
#
# Revision: 2
# Processed by: cddbd v1.5.2PL0 Copyright (c) Steve Scherf et al.
# Submitted via: CDex 1.51
#
DISCID=8c0ac40b
DTITLE=Alexander O'Neal - Hearsay [2003 Remaster]
DYEAR=1987
DGENRE=Soul
TTITLE0=Intro
TTITLE1=(What Can I Say) To Make You Love Me
TTITLE2=Hearsay
TTITLE3=The Lovers
TTITLE4=Fake
TTITLE5=Criticize
TTITLE6=Intro
TTITLE7=Never Knew Love Like This
TTITLE8=Sunshine
TTITLE9=Crying Overtime
TTITLE10=When The Party's Over
EXTD=jAn YEAR: 1987
EXTT0=
EXTT1=
EXTT2=
EXTT3=
EXTT4=
EXTT5=
EXTT6=
EXTT7=
EXTT8=
EXTT9=
EXTT10=
PLAYORDER=
